<svg xmlns="http://www.w3.org/2000/svg" viewBox="0 0 942.07 822.81"><g fill="#093556"><path d="M194.96 556.46v-6.16c0-55.05-.93-110.12.35-165.15.79-33.89 12.2-64.78 37.32-88.97 18.75-18.07 41.87-26.95 67.52-29.8 41.68-4.63 76.39 11.28 107.82 36.63 23.13 18.66 41.89 41.36 59.57 65.04.9 1.21 1.56 2.61 2.75 4.62 9.25-11.5 17.18-21.76 25.54-31.66 28.26-33.46 60.1-62.45 104.46-71.85 40.17-8.51 77.8-1.24 109.04 26.92 19.64 17.71 29.99 41.33 34.76 67.04 2.22 11.96 3.06 24.32 3.14 36.51.34 50.16.15 100.33.15 150.49v6.74c-1.81-.8-3.02-1.14-4.01-1.8-21.35-14.17-44.63-23.64-69.79-28.47-5.64-1.08-7.82-3.79-7.78-9.89.26-42.44.24-84.89.02-127.34-.05-10.04-1.62-19.98-8.66-27.97-12.05-13.68-27.24-16.94-43.91-11.27-21.34 7.25-37.85 21.37-52.99 37.94-28.6 31.3-48.56 68.48-72.27 103.11-7.17 10.47-24.41 14.43-34.07-.16-14.69-22.17-29.09-44.54-43.66-66.8-14.85-22.69-32.71-42.65-53.95-59.58-11.73-9.35-25.19-14.55-39.84-16.66-15.07-2.17-32.32 9.14-36.7 24.4-1.95 6.8-3.14 14.05-3.19 21.11-.3 41.16-.22 82.32-.07 123.48.02 4.95-.67 8.27-6.32 9.45-25.95 5.43-50.77 13.74-72.47 29.63-.53.39-1.45.23-2.75.4Z"/><path d="M231.14 555.3c19.85-5.21 39.46-11.92 59.63-15.23 22.62-3.72 45.75-5.96 68.64-5.88 22.36.07 44.82 3.07 67.01 6.33 13.27 1.95 25.94 7.7 39.18 10.1 6.56 1.19 13.9-.84 20.71-2.26 19.89-4.14 39.58-9.38 59.58-12.82 10.78-1.86 22.04-1.12 33.09-1.22 39.07-.36 77.41 4.69 114.81 16.17 5.33 1.63 10.52 3.71 15.59 6.75H231.99c-.28-.64-.57-1.28-.85-1.92ZM407.45 449.35v77.17c-35.02-5.99-71.31-10.08-107 2.6 1.98-14.35 5.3-27.8 5.29-41.24-.02-13.21-3.42-26.42-5.4-40.1 16.77 11.8 35.59 6.97 53.55 6.73 18.14-.24 36.92 3.8 53.57-5.16ZM530.96 450.1c36.51 8.5 72.04 5.26 107.8 1.45v76.34c-16.98-8.59-35.92-3.13-53.78-6.34-19.02-3.42-35.92 4.8-54.9 6.89 9.45-26.74 9.04-53.09.88-78.35Z"/></g></svg>